<svg height="24" width="22" xmlns="http://www.w3.org/2000/svg"><g fill="none" fill-rule="evenodd"><path d="M11.976.252l9 5.03A2 2 0 0 1 22 7.026v9.946a2 2 0 0 1-1.024 1.746l-9 5.029a2 2 0 0 1-1.952 0l-9-5.03A2 2 0 0 1 0 16.974V7.027a2 2 0 0 1 1.024-1.746l9-5.029a2 2 0 0 1 1.952 0z" fill="#0077b5"/><path d="M8.727 9.883v7.742H6.148V9.883zm.164-2.39c.007.741-.555 1.335-1.453 1.335h-.016C6.555 8.828 6 8.234 6 7.492c0-.758.578-1.336 1.453-1.336.883 0 1.43.578 1.438 1.336zm3.828 3.49c.339-.53.95-1.28 2.32-1.28 1.695 0 2.961 1.11 2.961 3.484v4.438h-2.57v-4.14c0-1.04-.375-1.75-1.305-1.75-.71 0-1.133.476-1.32.937a1.938 1.938 0 0 0-.086.633v4.32h-2.57c.03-7.016 0-7.742 0-7.742h2.57z" fill="#fff"/></g></svg>