<svg xmlns="http://www.w3.org/2000/svg" width="24" height="24" viewBox="0 0 24 24">
  <path fill="#24B99D" d="M13.0909091,6.13636364 L22.5452103,6.13574219 L22.5454545,6.13636364 L22.2132033,6.13636364 C23.0165266,6.13636364 23.6677488,6.78758582 23.6677488,7.59090909 L23.6677488,19.2272727 C23.6677488,20.030596 23.0165266,20.6818182 22.2132033,20.6818182 L1.84956694,20.6818182 C1.04624367,20.6818182 0.395021488,20.030596 0.395021488,19.2272727 L0.395021488,6.89427298 C0.395021488,6.39345549 0.489071109,5.89709205 0.672280705,5.43098863 L1.46177289,3.42244206 C1.68051559,2.86593889 2.21754686,2.5 2.81549681,2.5 L9.6109098,2.5 C10.2088598,2.5 10.745891,2.86593889 10.9646337,3.42244206 L12.0313851,6.13636364 L13.0909091,6.13636364 Z M12.0313851,3.29840916 C12.2769287,2.81220326 12.7772609,2.5 13.3295662,2.5 L20.1249792,2.5 C20.7229292,2.5 21.2599604,2.86593889 21.4787031,3.42244206 L22.2593438,5.40846946 L12.8563074,5.40846946 L12.0313851,3.29840916 Z M12.228076,12.8900849 C11.5723542,12.7190271 11.1114552,12.5337172 10.8453653,12.3341497 C10.5792753,12.1345822 10.4462323,11.8922539 10.4462323,11.6071574 C10.4462323,11.2745449 10.5887783,11.0060832 10.8738748,10.8017641 C11.1589712,10.597445 11.5485971,10.4952869 12.0427642,10.4952869 C13.0120921,10.4952869 13.5110034,10.9134221 13.539513,11.7497049 L14.85095,11.7497049 C14.8319436,11.2175249 14.6656398,10.7518744 14.3520337,10.3527394 C14.009918,9.9250948 13.5347645,9.64000265 12.9265587,9.49745443 L12.9265587,8.18601744 L11.144715,8.18601744 L11.144715,9.46894493 C10.5460125,9.59248672 10.0613559,9.83481504 9.6907305,10.1959372 C9.29159551,10.585569 9.092031,11.055971 9.092031,11.6071574 C9.092031,12.253376 9.34861394,12.785548 9.8617875,13.2036894 C10.3084386,13.5648116 10.9784051,13.8499037 11.8717073,14.0589744 C12.5464355,14.2205291 13.0263406,14.4390997 13.311437,14.7146929 C13.5395141,14.9237636 13.653551,15.1898496 13.653551,15.5129589 C13.653551,15.7790489 13.5490172,16.0071226 13.3399465,16.1971869 C13.0548501,16.4442705 12.6224603,16.5678104 12.0427642,16.5678104 C11.4630682,16.5678104 11.0211754,16.4442705 10.7170725,16.1971869 C10.4509825,15.9881162 10.3084364,15.693521 10.28943,15.3133924 L8.977993,15.3133924 C9.01600586,15.9406046 9.24407958,16.4537704 9.662221,16.8529054 C10.0423496,17.2140276 10.5365093,17.4611074 11.144715,17.5941524 L11.144715,18.8770799 L12.9265587,18.8770799 L12.9265587,17.5941524 C13.5537709,17.4706106 14.0479306,17.2425369 14.4090527,16.9099244 C14.817691,16.5392991 15.022007,16.0641455 15.022007,15.4844494 C15.022007,14.9522694 14.8794609,14.5008735 14.5943645,14.1302482 C14.3567841,13.8261453 14.009922,13.5648109 13.5537677,13.3462369 C13.2211553,13.1846823 12.7792624,13.0326331 12.228076,12.8900849 Z"/>
</svg>
