<svg height="24" width="24" xmlns="http://www.w3.org/2000/svg"><path d="M13.178 5c-.327 0-.642.117-.883.328L8.273 8.837c-.691.624-.679 1.595-.098 2.199.52.542 1.612.686 2.295.105l3.285-2.862a.68.68 0 0 1 .925.04.603.603 0 0 1-.041.88l-1.068.932 5.956 4.61c.119.093.225.194.323.3V7.494l-2.233-2.128A1.333 1.333 0 0 0 16.692 5zm7.986 2.503v8.73c0 .69.585 1.248 1.309 1.248H24V7.503zM0 17.477h1.527c.724 0 1.31-.557 1.31-1.247V7.503H0zm12.597-6.492l-1.227 1.072c-1.215 1.057-3.076.956-4.16-.171-1.1-1.146-1.015-2.92.18-3.966L10.736 5H7.308c-.348 0-.68.133-.925.367L4.145 7.495v8.73h.75l3.701 3.194c1.121.87 2.77.706 3.682-.363l.74.597c.651.507 1.612.41 2.14-.21l1.285-1.506.22.172c.561.433 1.387.355 1.842-.183l.388-.457a1.21 1.21 0 0 0-.188-1.758z" fill="#24b99d"/></svg>