<svg height="24" width="24" xmlns="http://www.w3.org/2000/svg"><path d="M24 8.393h-1.38v11.66h.553v.624H24v.614H0v-.614h.826v-.625h.554V8.392H0V5.29L3.076 3 .656 5.29h22.687L20.923 3 24 5.29zM6.27 16.667c.663 0 1.24-.136 1.73-.407s.866-.659 1.128-1.164c.262-.505.393-1.096.393-1.772s-.131-1.263-.393-1.762c-.262-.5-.638-.885-1.128-1.156S6.933 10 6.27 10c-.664 0-1.241.135-1.731.406s-.87.656-1.137 1.156C3.134 12.06 3 12.648 3 13.324s.132 1.267.397 1.772a2.76 2.76 0 0 0 1.137 1.164c.493.271 1.072.407 1.735.407zm-1.142-1.822c-.274-.344-.411-.851-.411-1.52 0-.664.137-1.167.41-1.508.275-.34.655-.511 1.142-.511s.87.172 1.147.516c.277.344.415.845.415 1.502 0 .664-.138 1.17-.415 1.516-.277.347-.66.52-1.147.52s-.867-.171-1.141-.515zm6.502 1.74h1.735V11.47h1.936v-1.388H9.694v1.388h1.936zm8.407-.11c.398-.128.72-.301.963-.52l-.52-1.215c-.53.383-1.078.575-1.644.575-.524 0-.926-.167-1.206-.502-.28-.335-.42-.831-.42-1.489 0-.651.14-1.143.42-1.475.28-.331.682-.497 1.206-.497.566 0 1.114.191 1.643.575L21 10.712c-.244-.219-.565-.392-.963-.52S19.225 10 18.799 10c-.676 0-1.265.139-1.767.416-.502.277-.889.666-1.16 1.168s-.406 1.083-.406 1.74c0 .664.135 1.248.406 1.754.271.505.658.896 1.16 1.173.502.277 1.091.416 1.767.416a4.03 4.03 0 0 0 1.238-.192z" fill="#24b99d"/></svg>