<svg height="25" width="25" xmlns="http://www.w3.org/2000/svg"><path d="M22.803 17.627c.405 0 .732.328.732.732v2.93a.732.732 0 1 1-1.465 0v-.803C19.726 23.27 16.2 25 12.5 25 5.634 25 0 19.366 0 12.5c0-1.054.132-2.101.392-3.112a.733.733 0 0 1 1.42.365c-.23.892-.347 1.816-.347 2.747 0 6.058 4.977 10.986 11.035 10.986a11.12 11.12 0 0 0 8.828-4.4h-1.455c-.405 0-.732-.322-.732-.727s.327-.732.732-.732zM12.5 0C19.366 0 25 5.634 25 12.5c0 1.054-.132 2.101-.392 3.112a.733.733 0 0 1-1.419-.365c.23-.892.346-1.816.346-2.747 0-6.058-4.977-10.986-11.035-10.986a11.12 11.12 0 0 0-8.828 4.394h1.455a.732.732 0 1 1 0 1.465h-2.93a.732.732 0 0 1-.732-.732V3.71a.732.732 0 1 1 1.465 0v.804C5.274 1.729 8.8 0 12.5 0zm5.908 5.908c.403 0 .733.33.733.733v4.394c0 3.635-3.006 6.592-6.641 6.592H8.36l-1.25 1.25a.732.732 0 1 1-1.036-1.035l1.25-1.25V12.5c0-3.635 3.006-6.592 6.64-6.592zm-5.257 5.205c-.434-.113-.739-.236-.915-.368-.176-.132-.264-.292-.264-.48 0-.221.094-.399.283-.534.188-.135.446-.203.773-.203.642 0 .972.277.99.83h.869a1.546 1.546 0 0 0-.33-.924c-.227-.283-.541-.472-.944-.566V8h-1.179v.85c-.396.08-.717.241-.962.48a1.26 1.26 0 0 0-.397.934c0 .428.17.78.51 1.057.296.239.739.427 1.33.566.447.107.764.251.953.434.15.138.226.314.226.528a.592.592 0 0 1-.207.453c-.189.163-.475.245-.859.245s-.676-.082-.877-.245c-.176-.138-.27-.333-.283-.585H11c.025.415.176.755.453 1.019.251.239.578.402.981.49v.85h1.18v-.85c.414-.081.741-.232.98-.452.27-.246.406-.56.406-.944 0-.352-.094-.65-.283-.896-.157-.201-.387-.374-.689-.519a4.822 4.822 0 0 0-.877-.302z" fill="#24b99d"/></svg>