<svg width="65" height="166" xmlns="http://www.w3.org/2000/svg"><defs><linearGradient x1="199.44%" y1="16.415%" x2="-34.622%" y2="17.389%" id="a"><stop stop-color="#FFF" stop-opacity="0" offset="0%"/><stop stop-color="#24B99D" offset="100%"/></linearGradient></defs><path d="M13.828 154.607l7.779 7.778 7.778-7.778-7.778-7.779-7.779 7.779zm9.065-51.82l20.427 20.426-21.213 21.213L.893 123.213l20.021-20.02a1.034 1.034 0 0 1-.02-.208V21.22L41.507.297a.99.99 0 0 1 1.414 0c.39.397.39 1.04 0 1.436L22.893 22.06v80.726zM21.607 144l10.606 10.607-10.606 10.606L11 154.607 21.607 144zm32-31l10.606 10.607-10.606 10.606L43 123.607 53.607 113z" fill="url(#a)" opacity=".3"/></svg>