<svg width="86" height="198" xmlns="http://www.w3.org/2000/svg"><defs><linearGradient x1="0%" y1="3.967%" x2="15.126%" y2="75.617%" id="a"><stop stop-color="#FFF" stop-opacity="0" offset="0%"/><stop stop-color="#24B99D" offset="100%"/></linearGradient><linearGradient x1="-16.526%" y1="-8.513%" x2="11.822%" y2="42.536%" id="b"><stop stop-color="#FFF" stop-opacity="0" offset="0%"/><stop stop-color="#24B99D" offset="100%"/></linearGradient></defs><g fill="none" opacity=".2"><path d="M67.615 176.607l7.778 7.778 7.779-7.778-7.779-7.779-7.778 7.779zm-22.062-20.054l19.644 19.644L75.393 166 86 176.607l-10.607 10.606-10.59-10.59L44 197.426l-21.213-21.213 20.766-20.766v-41.544L.787 71.137V0h2v70.309l42.766 42.766v43.478zM11.393 166L22 176.607l-10.607 10.606L.787 176.607 11.393 166z" fill="url(#a)"/><path d="M65.615 117.607l7.778 7.778 7.779-7.778-7.779-7.779-7.778 7.779zm8.938-9.447L84 117.607l-10.607 10.606-10.606-10.606 9.766-9.767V76.751L43.787 47.985V0h2v47.157l28.766 28.766v32.237z" fill="url(#b)"/></g></svg>