<svg width="104" height="297" xmlns="http://www.w3.org/2000/svg"><defs><linearGradient x1="170.629%" y1="-137.699%" x2="0%" y2="96.011%" id="a"><stop stop-color="#FFF" stop-opacity="0" offset="0%"/><stop stop-color="#24B99D" offset="100%"/></linearGradient><linearGradient x1="199.44%" y1="16.415%" x2="-34.622%" y2="17.389%" id="b"><stop stop-color="#FFF" stop-opacity="0" offset="0%"/><stop stop-color="#24B99D" offset="100%"/></linearGradient></defs><g fill="none" opacity=".2"><path d="M90 216.607v-70.544l11.755-11.755V94h2v41.136L92 146.892v68.501l10.213 10.214-9.967 9.967v30.196l-11.004 9.26.184.183-21.213 21.213L39 275.213 60.213 254l19.61 19.61 10.423-8.77V235h.147L81 225.607l9-9z" fill="url(#a)"/><path d="M21.607 228.828l-7.779 7.779 7.779 7.778 7.778-7.778-7.778-7.779zm-.977-44.245v-80.171L1 84.782V0h2v83.953l19.63 19.63v81.834l19.796 19.796-20.803 20.804 10.59 10.59-10.606 10.606L11 236.607l10.197-10.197L0 205.213l20.63-20.63z" fill="url(#b)"/></g></svg>