<svg width="94" height="215" xmlns="http://www.w3.org/2000/svg"><defs><linearGradient x1="0%" y1="-59.62%" x2="0%" y2="100%" id="a"><stop stop-color="#FFF" stop-opacity="0" offset="0%"/><stop stop-color="#24B99D" offset="100%"/></linearGradient><linearGradient x1="-25.91%" y1="-17.017%" x2="78.958%" y2="58.535%" id="b"><stop stop-color="#FFF" stop-opacity="0" offset="0%"/><stop stop-color="#24B99D" offset="100%"/></linearGradient></defs><g fill="none" opacity=".2"><path d="M71.333 93.373V55.45l11.982-11.596L82.96.016l2-.016.362 44.694-11.989 11.603v37.316l20.093 20.093-21.213 21.213L51 113.706l20.333-20.333z" fill="url(#a)"/><path d="M37.025 167.124l-20.39-20.39 20.627-20.627V44.676L0 7.414 1.414 6l37.848 37.848v83.087l19.8 19.799-20.056 20.056h.019v21.043l15.293 15.293h11.318l9.605-9.605 10.607 10.606-10.607 10.607-9.607-9.608H53.49l-16.465-16.465v-21.537z" fill="url(#b)"/></g></svg>