<svg width="1125" height="180" xmlns="http://www.w3.org/2000/svg"><defs><linearGradient x1="50%" y1="0%" x2="50%" y2="100%" id="a"><stop stop-color="#24B99D" offset="0%"/><stop stop-color="#14364C" offset="100%"/></linearGradient><linearGradient x1="50%" y1="0%" x2="116.663%" y2="1221.484%" id="b"><stop stop-color="#24B99D" offset="0%"/><stop stop-color="#14364C" offset="100%"/></linearGradient><linearGradient x1="-102.725%" y1="-3128.125%" x2="8.81%" y2="-546.289%" id="c"><stop stop-color="#24B99D" offset="0%"/><stop stop-color="#14364C" offset="100%"/></linearGradient></defs><g fill="none" fill-rule="evenodd" stroke-width="2"><path d="M564.822-393.018l82.767 47.786a6 6 0 0 1 3 5.196v860.072a6 6 0 0 1-3 5.196l-82.767 47.786a6 6 0 0 1-6 0l-82.768-47.786a6 6 0 0 1-3-5.196v-860.072a6 6 0 0 1 3-5.196l82.768-47.786a6 6 0 0 1 6 0z" stroke="url(#a)" transform="rotate(90 561.822 90)"/><path d="M1047 90.232h77.015" stroke="url(#b)"/><path d="M0 89.232h77.015" stroke="url(#c)"/></g></svg>