<svg width="200" height="180" xmlns="http://www.w3.org/2000/svg"><defs><linearGradient x1="50%" y1="0%" x2="116.663%" y2="1221.484%" id="a"><stop stop-color="#24B99D" offset="0%"/><stop stop-color="#14364C" offset="100%"/></linearGradient><linearGradient x1="50%" y1="0%" x2="50%" y2="100%" id="b"><stop stop-color="#24B99D" offset="0%"/><stop stop-color="#14364C" offset="100%"/></linearGradient></defs><g fill="none"><path fill="url(#a)" d="M123 91v-2h77v2z"/><path d="M-358.494-392.33a5.023 5.023 0 0 0-5.012 0l-82.982 47.804a5 5 0 0 0-2.507 4.332v860.388a5 5 0 0 0 2.507 4.332l82.982 47.803a5.023 5.023 0 0 0 5.012 0l82.982-47.803a5 5 0 0 0 2.507-4.332v-860.388a5 5 0 0 0-2.507-4.332l-82.982-47.803zm1.003-1.732l82.982 47.804a7 7 0 0 1 3.509 6.064v860.388a7 7 0 0 1-3.51 6.064l-82.98 47.804a7.032 7.032 0 0 1-7.02 0l-82.98-47.804a7 7 0 0 1-3.51-6.064v-860.388a7 7 0 0 1 3.51-6.064l82.98-47.804a7.032 7.032 0 0 1 7.02 0z" fill="url(#b)" transform="rotate(90 -361 90)"/></g></svg>