<svg width="495" height="499" xmlns="http://www.w3.org/2000/svg" xmlns:xlink="http://www.w3.org/1999/xlink"><defs><path id="b" d="M297.75 191.5l133.151 76.875v153.75L297.75 499l-133.151-76.875v-153.75z"/><filter x="-4.9%" y="-9.8%" width="119.5%" height="119.5%" filterUnits="objectBoundingBox" id="a"><feMorphology radius="7.5" in="SourceAlpha" result="shadowSpreadOuter1"/><feOffset dx="15" in="shadowSpreadOuter1" result="shadowOffsetOuter1"/><feGaussianBlur stdDeviation="15" in="shadowOffsetOuter1" result="shadowBlurOuter1"/><feColorMatrix values="0 0 0 0 0 0 0 0 0 0 0 0 0 0 0 0 0 0 0.5 0" in="shadowBlurOuter1"/></filter><path id="d" d="M341.25 1l133.151 76.875v153.75L341.25 308.5l-133.151-76.875V77.875z"/><filter x="-6.2%" y="-11.1%" width="124.7%" height="122.1%" filterUnits="objectBoundingBox" id="c"><feMorphology radius="7.5" in="SourceAlpha" result="shadowSpreadOuter1"/><feOffset dx="23" in="shadowSpreadOuter1" result="shadowOffsetOuter1"/><feGaussianBlur stdDeviation="15" in="shadowOffsetOuter1" result="shadowBlurOuter1"/><feColorMatrix values="0 0 0 0 0 0 0 0 0 0 0 0 0 0 0 0 0 0 0.5 0" in="shadowBlurOuter1"/></filter><path id="f" d="M153.75 61l133.151 76.875v153.75L153.75 368.5 20.599 291.625v-153.75z"/><filter x="-4.9%" y="-9.8%" width="119.5%" height="119.5%" filterUnits="objectBoundingBox" id="e"><feMorphology radius="7.5" in="SourceAlpha" result="shadowSpreadOuter1"/><feOffset dx="15" in="shadowSpreadOuter1" result="shadowOffsetOuter1"/><feGaussianBlur stdDeviation="15" in="shadowOffsetOuter1" result="shadowBlurOuter1"/><feColorMatrix values="0 0 0 0 0 0 0 0 0 0 0 0 0 0 0 0 0 0 0.5 0" in="shadowBlurOuter1"/></filter><path id="h" d="M309 212l-44.5 78-45.5-78z"/><filter x="-22.2%" y="-12.8%" width="144.4%" height="151.3%" filterUnits="objectBoundingBox" id="g"><feMorphology radius="5" in="SourceAlpha" result="shadowSpreadOuter1"/><feOffset dy="10" in="shadowSpreadOuter1" result="shadowOffsetOuter1"/><feGaussianBlur stdDeviation="10" in="shadowOffsetOuter1" result="shadowBlurOuter1"/><feColorMatrix values="0 0 0 0 0 0 0 0 0 0 0 0 0 0 0 0 0 0 0.5 0" in="shadowBlurOuter1"/></filter></defs><g fill="none" fill-rule="evenodd"><g style="mix-blend-mode:multiply" transform="rotate(90 297.75 345.25)"><use fill="#000" filter="url(#a)" xlink:href="#b"/><use fill="#A3B3C3" xlink:href="#b"/></g><g style="mix-blend-mode:multiply" transform="rotate(90 341.25 154.75)"><use fill="#000" filter="url(#c)" xlink:href="#d"/><use fill="#87DACC" xlink:href="#d"/></g><g style="mix-blend-mode:multiply" transform="rotate(90 153.75 214.75)"><use fill="#000" filter="url(#e)" xlink:href="#f"/><use fill="#89C4BD" xlink:href="#f"/></g><use fill="#000" filter="url(#g)" xlink:href="#h"/><use fill="#FFD400" xlink:href="#h"/><g fill="#FFF"><path d="M257.193 230.62l3.13 3.122 3.129-3.121-3.13-3.121z"/><path d="M260.323 239.984l-3.13-3.121 3.13-3.121 3.129 3.121z"/><path d="M260.323 246.093l-3.13-3.12 3.13-3.122 3.129 3.121zm0 6.242l-3.13-3.121 3.13-3.12 3.129 3.12z"/><path d="M257.193 255.323l3.13 3.121 3.129-3.12-3.13-3.122zm6.126-24.703l3.129 3.122 3.13-3.121-3.13-3.121zm3.129 15.473l-3.13-3.12 3.13-3.122 3.13 3.121z"/><path opacity=".5" d="M272.706 232.68l-2.063-2.059 2.063-2.059 2.065 2.059z"/><path d="M272.706 239.984l-3.129-3.121 3.13-3.121 3.129 3.121z"/><path opacity=".5" d="M272.706 245.03l-2.063-2.058 2.063-2.058 2.065 2.058zM252 255.323l2.064 2.059 2.064-2.059-2.064-2.058zm0-24.702l2.064 2.059 2.064-2.059-2.064-2.059z"/></g><text font-family="Muli-Bold, Muli" font-size="18" font-weight="bold" fill="#14364C"><tspan x="286.902" y="58">STI Financial</tspan> <tspan x="282.753" y="81">Group Alumni</tspan> <tspan x="268.929" y="104" font-family="Muli-Regular, Muli" font-weight="normal">Financial Markets </tspan> <tspan x="303.687" y="127" font-family="Muli-Regular, Muli" font-weight="normal">Expertise</tspan></text><text font-family="Muli-Bold, Muli" font-size="18" font-weight="bold" fill="#14364C"><tspan x="40.764" y="196">Green Tomato</tspan> <tspan x="62.553" y="219" font-family="Muli-Regular, Muli" font-weight="normal">Technical</tspan> <tspan x="63.687" y="242" font-family="Muli-Regular, Muli" font-weight="normal">Expertise</tspan></text><text font-family="Muli-Bold, Muli" font-size="18" font-weight="bold" fill="#14364C"><tspan x="229.512" y="404.5">Harborx Alumni</tspan> <tspan x="242.112" y="427.5" font-family="Muli-Regular, Muli" font-weight="normal">Product &amp; UX</tspan> <tspan x="259.437" y="450.5" font-family="Muli-Regular, Muli" font-weight="normal">Expertise</tspan></text></g></svg>