<svg height="24" width="70" xmlns="http://www.w3.org/2000/svg"><g fill="#fff" fill-rule="evenodd"><path d="M23.77 10.65v5.637c.546.065 1.22.098 1.735.098 1.814 0 2.055-.538 2.055-2.868 0-2.232-.177-2.868-1.96-2.868zm5.733 2.802c0 3.699-.723 4.66-3.693 4.66-.74 0-1.35-.016-2.04-.097v3.014c0 .18-.08.26-.24.26h-1.478c-.16 0-.24-.08-.24-.26V9.558c0-.196.112-.294.304-.326 1.365-.229 2.265-.294 3.42-.294 3.244 0 3.967.945 3.967 4.514zm3.5-7.887c.16 0 .24.082.24.245v11.976c0 .163-.08.245-.24.245h-1.461c-.16 0-.241-.082-.241-.245V5.81c0-.163.08-.245.24-.245zm9.65 3.455c.16 0 .24.081.24.244v8.31c0 .212-.08.229-.24.261-1.188.245-2.617.277-3.58.277-2.971 0-3.806-.472-3.806-3.878v-4.97c0-.163.112-.244.273-.244h1.445c.16 0 .225.081.225.244v4.612c0 2.411.369 2.525 1.878 2.525h1.847V9.264c0-.163.08-.244.24-.244zm4.495-2.493c.177-.05.273.049.273.228v2.281h1.59c.16 0 .257.081.257.245v1.026c0 .18-.096.26-.257.26h-1.59v4.97c0 .718.21.864.996.864h.706c.193 0 .273.066.273.229v1.075c0 .179-.08.26-.24.293-.45.082-.9.114-1.14.114-1.253 0-2.554-.032-2.554-1.988v-5.556h-.915c-.16 0-.257-.082-.257-.261V9.281c0-.164.096-.245.257-.245h.915V7.162c0-.163.08-.228.225-.26zM58.1 9.02c.16 0 .24.081.24.244v8.31c0 .212-.08.229-.24.261-1.188.245-2.617.277-3.58.277-2.971 0-3.806-.472-3.806-3.878v-4.97c0-.163.112-.244.273-.244h1.445c.16 0 .225.081.225.244v4.612c0 2.411.37 2.525 1.879 2.525h1.846V9.264c0-.163.08-.244.24-.244zm6.181 6.215l-2.938 3.175a.25.25 0 0 1-.371 0l-1.196-1.291a.266.266 0 0 1 0-.354l2.92-3.154a.067.067 0 0 0 0-.09l-2.92-3.153a.266.266 0 0 1 0-.354l1.196-1.292a.25.25 0 0 1 .371 0l2.938 3.175 2.939-3.175a.25.25 0 0 1 .371 0l1.196 1.292c.09.097.09.256 0 .354l-2.92 3.153a.067.067 0 0 0 0 .09l2.92 3.154c.09.097.09.257 0 .354L67.59 18.41a.25.25 0 0 1-.371 0z" fill-rule="nonzero"/><path d="M14.203 1.507l1.522 1.522-1.522 1.522-1.522-1.522zm-12.681 0L3.043 3.03 1.522 4.551 0 3.029zm0 16.232l1.521 1.522-1.521 1.522L0 19.26zm12.68-8.116l1.523 1.522-1.522 1.522-1.522-1.522z" fill-opacity=".6"/><path d="M10.145 1l2.029 2.029-2.03 2.029-2.028-2.029zm0 8.116l2.029 2.029-2.03 2.029-2.028-2.03zm4.058-4.058l2.029 2.029-2.03 2.029-2.028-2.029zM6.087 1l2.029 2.029-2.029 2.029-2.029-2.029zm0 4.058l2.029 2.029-2.029 2.029-2.029-2.029zm0 8.116l2.029 2.029-2.029 2.029-2.029-2.03zm0 4.058l2.029 2.029-2.029 2.029-2.029-2.03zm0-8.116l2.029 2.029-2.029 2.029-2.029-2.03z"/></g></svg>