<svg width="20" height="20" xmlns="http://www.w3.org/2000/svg"><path d="M18.385 0c.452 0 .834.148 1.146.443.313.295.469.668.469 1.12V18.28c0 .452-.156.85-.469 1.198a1.483 1.483 0 0 1-1.146.521H1.72c-.452 0-.85-.174-1.198-.52C.174 19.131 0 18.732 0 18.28V1.563C0 1.11.165.738.495.442.825.148 1.233 0 1.719 0h16.666zm-5.668 5.503c.122-.373.642-1.953 1.128-1.953.26 0 .33.27.33.486 0 .582-1.172 3.785-1.432 4.497l-1.016-.182.99-2.848zm-2.595 5.964c.295.095.598.122.902.182a3.89 3.89 0 0 0-.616.582c-.087-.26-.191-.512-.286-.764zM7.587 3.689c0-.2.104-.477.338-.477.452 0 .955 1.58 1.068 1.91l1.05 3.046c-.208-.017-.442-.043-.65-.043-.148 0-.304.017-.426.087-.33-.877-1.38-3.637-1.38-4.523zM6.9 10.278c0-.235.382-.643.616-.643.712 0 1.537 1.797 1.763 2.379.078.19.277.686.277.885 0 .157-.147.348-.32.348-.635 0-2.336-2.336-2.336-2.97zm-1.37 2.908c0-.452.295-1.172.842-1.172.347 0 1.77 1.831 1.77 2.222 0 .148-.234.252-.356.252-.468 0-.902-.564-1.154-.903-.165-.226-.347-.443-.52-.66-.174.174-.287.322-.287.582 0 .955 1.241 2.057 2.178 2.057.608 0 1.172-.46 1.172-1.094 0-.06 0-.121-.017-.182.113 0 .252.009.356-.017.035.824.278 1.805 1.267 1.875 0-.026.061-.217.061-.226 0-.53-.321-.99-.321-1.528 0-.859.66-1.692 1.328-2.178.243-.183.52-.296.807-.4.295-.113.608-.243.834-.469-.018-.173-.052-.338-.165-.477-.105-.121-.183-.165-.348-.165-.842 0-3.645.122-3.645-1.206 0-.096 0-.26.104-.304.095-.087.304-.096.425-.096.981 0 3.455.243 4.184.886.382.347.373 1.12.373 1.606 0 1.38-.382 2.664-1.319 3.706-.885.972-1.997 1.476-3.316 1.476-1.806 0-3.35-.99-4.036-2.682-.113-.287-.217-.59-.217-.903zm-.99.078c0 1.831 1.536 3.524 3.186 4.15a5.507 5.507 0 0 0 1.935.364c3.586 0 5.8-2.691 5.8-6.163 0-1.311-.21-2.492-1.668-2.848.356-.99 1.38-3.854 1.38-4.774 0-.807-.477-1.484-1.328-1.484-1.354 0-2.552 4.001-2.934 4.956-.295-.868-1.675-5.243-2.89-5.243-.946 0-1.39.695-1.39 1.571 0 .981 1.051 3.89 1.416 4.922-.191-.07-.4-.13-.608-.13-.712 0-1.588.885-1.588 1.597 0 .27.147.651.243.903-1.12.304-1.554 1.05-1.554 2.179z" fill="#FFF" fill-rule="evenodd"/></svg>