<svg width="20" height="20" xmlns="http://www.w3.org/2000/svg"><path d="M18.385 0c.452 0 .834.148 1.146.443.313.295.469.668.469 1.12V18.28c0 .452-.156.85-.469 1.198a1.483 1.483 0 0 1-1.146.521H1.72c-.452 0-.85-.174-1.198-.52C.174 19.131 0 18.732 0 18.28V1.563C0 1.11.165.738.495.442.825.148 1.233 0 1.719 0h16.666zM6.961 5.937H2.667v8.784h4.421c1.655 0 3.206-.76 3.206-2.545 0-1.105-.544-1.92-1.655-2.232.81-.38 1.238-.949 1.238-1.83 0-1.753-1.354-2.177-2.916-2.177zm-.255 3.55H4.669V7.432h1.887c.717 0 1.377.19 1.377 1.004 0 .748-.51 1.05-1.227 1.05zm.104 3.738H4.67v-2.422h2.187c.88 0 1.436.369 1.436 1.261 0 .893-.66 1.161-1.482 1.161zm7.523.357c-1.064 0-1.62-.602-1.62-1.618h4.757c.012-.112.012-.223.012-.335 0-1.875-1.146-3.448-3.218-3.448-2.002 0-3.38 1.462-3.38 3.37 0 1.987 1.297 3.337 3.38 3.337 1.586 0 2.604-.68 3.09-2.132h-1.597c-.174.536-.88.826-1.424.826zm-.115-4.084c.902 0 1.354.524 1.435 1.361h-2.94c.058-.837.637-1.361 1.505-1.361zm1.817-2.97h-3.692v.86h3.692v-.86z" fill="#FFF" fill-rule="evenodd"/></svg>