<svg width="24" height="25" xmlns="http://www.w3.org/2000/svg"><path d="M8.977 8.633h-.024L9 8.914a.597.597 0 0 1-.035.211.758.758 0 0 1-.106.188.441.441 0 0 1-.175.105.63.63 0 0 1-.2.035H8.18l-5.367.024a.542.542 0 0 1-.399-.165.542.542 0 0 1-.164-.398v-.398a.572.572 0 0 1 .21-.41.558.558 0 0 1 .423-.13l3.539-.023L.21 1.813a.741.741 0 0 1-.234-.54c0-.203.078-.382.234-.539.14-.14.316-.21.527-.21a.72.72 0 0 1 .528.21L7.5 6.922l-.023-3.633a.56.56 0 0 1 .152-.398.505.505 0 0 1 .387-.164h.398a.59.59 0 0 1 .375.128c.11.086.172.207.188.364v5.414zm6.164.68a.758.758 0 0 1-.106-.188.597.597 0 0 1-.035-.21l.047-.282h-.024V3.219a.503.503 0 0 1 .188-.364.59.59 0 0 1 .375-.128h.398c.157 0 .286.054.387.164a.56.56 0 0 1 .152.398L16.5 6.922 22.734.734a.72.72 0 0 1 .528-.21c.21 0 .386.07.527.21a.741.741 0 0 1 .234.54.741.741 0 0 1-.234.538l-6.21 6.141 3.538.024a.558.558 0 0 1 .422.128.572.572 0 0 1 .211.41v.4a.546.546 0 0 1-.164.398.542.542 0 0 1-.398.164l-5.368-.024h-.304a.63.63 0 0 1-.2-.035.441.441 0 0 1-.175-.105zm-6.282 6.351a.758.758 0 0 1 .106.188.597.597 0 0 1 .035.21l-.047.305h.024v5.414a.503.503 0 0 1-.188.364.59.59 0 0 1-.375.128h-.398a.505.505 0 0 1-.387-.164.564.564 0 0 1-.152-.398l.023-3.656-6.234 6.21a.715.715 0 0 1-.528.212.715.715 0 0 1-.527-.211.741.741 0 0 1-.234-.54.74.74 0 0 1 .234-.538l6.21-6.165L2.884 17a.558.558 0 0 1-.422-.129.572.572 0 0 1-.211-.41v-.398c0-.157.055-.29.164-.399a.542.542 0 0 1 .398-.164l5.368.023h.304a.63.63 0 0 1 .2.036c.07.023.128.058.175.105zm8.72 1.36l6.21 6.163a.741.741 0 0 1 .234.54.741.741 0 0 1-.234.539.715.715 0 0 1-.527.21.715.715 0 0 1-.528-.21l-6.257-6.164.023 3.609a.56.56 0 0 1-.152.398.505.505 0 0 1-.387.164h-.422a.59.59 0 0 1-.375-.128.503.503 0 0 1-.187-.364v-5.414H15l-.047-.281a.61.61 0 0 1 .035-.211.758.758 0 0 1 .106-.188.788.788 0 0 1 .176-.128.412.412 0 0 1 .199-.059h5.718c.157.016.29.078.399.188.11.109.164.234.164.374v.399a.572.572 0 0 1-.21.41.558.558 0 0 1-.423.129l-3.539.023z" fill="#FFF" fill-rule="evenodd"/></svg>