<svg width="20" height="20" xmlns="http://www.w3.org/2000/svg"><path d="M18.385 0c.452 0 .834.148 1.146.443.313.295.469.668.469 1.12V18.28c0 .452-.156.85-.469 1.198a1.483 1.483 0 0 1-1.146.521H1.72c-.452 0-.85-.174-1.198-.52C.174 19.131 0 18.732 0 18.28V1.563C0 1.11.165.738.495.442.825.148 1.233 0 1.719 0h16.666zm-5.15 17.005a.15.15 0 0 1-.019-.059v-2.52c0-.793-.28-1.47-.84-2.03 1.498-.26 2.617-.817 3.36-1.67.742-.853 1.113-1.885 1.113-3.096 0-1.133-.365-2.116-1.094-2.95.26-.833.215-1.711-.137-2.636-.364-.026-.761.036-1.191.186-.43.15-.749.29-.957.42-.208.13-.397.253-.566.37-.756-.208-1.599-.312-2.53-.312-.93 0-1.767.104-2.51.313a11.68 11.68 0 0 0-.498-.342c-.188-.124-.517-.274-.986-.45-.469-.175-.892-.25-1.27-.224-.364.938-.403 1.83-.117 2.676-.716.833-1.074 1.816-1.074 2.949 0 1.211.365 2.24 1.094 3.086.73.846 1.849 1.406 3.36 1.68a2.772 2.772 0 0 0-.782 1.367c-1.107.273-1.881.078-2.324-.586-.82-1.198-1.556-1.628-2.207-1.29-.091.092-.078.186.039.284.117.098.293.228.527.39.235.163.41.342.528.538.013.026.048.12.107.283.059.163.117.319.176.469.058.15.169.315.332.498.163.182.351.335.566.459.215.123.511.215.889.273.377.059.807.062 1.289.01l.078 1.914c.52.663 1.449.995 2.783.995 1.916 0 2.862-.958 2.862-.995z" fill="#FFF" fill-rule="evenodd"/></svg>