<svg width="20" height="20" xmlns="http://www.w3.org/2000/svg"><path d="M18.385 0c.452 0 .834.148 1.146.443.313.295.469.668.469 1.12V18.28c0 .452-.156.85-.469 1.198a1.483 1.483 0 0 1-1.146.521H1.72c-.452 0-.85-.174-1.198-.52C.174 19.131 0 18.732 0 18.28V1.563C0 1.11.165.738.495.442.825.148 1.233 0 1.719 0h16.666zM6.198 16.667V7.76H3.333v8.907h2.865zM4.844 6.407c.451 0 .824-.148 1.12-.443.295-.296.442-.651.442-1.068 0-.452-.139-.825-.416-1.12-.278-.295-.643-.443-1.094-.443-.452 0-.825.148-1.12.443-.295.295-.443.668-.443 1.12 0 .417.14.772.417 1.068.278.295.642.442 1.094.442zm11.823 10.26v-5.209c0-1.284-.304-2.257-.912-2.916-.607-.66-1.397-.99-2.37-.99-1.041 0-1.91.486-2.604 1.458V7.76H7.917v8.907h2.864v-5.052c0-.348.035-.59.104-.73.278-.694.764-1.041 1.459-1.041.972 0 1.458.642 1.458 1.927v4.896h2.865z" fill="#FFF" fill-rule="evenodd"/></svg>