<svg width="24" height="25" xmlns="http://www.w3.org/2000/svg"><path d="M16.078 9.477a.68.68 0 0 1-.527.234.68.68 0 0 1-.528-.234.68.68 0 0 1-.234-.528.68.68 0 0 1 .234-.527l6.422-6.399h-3.539a.652.652 0 0 1-.422-.152.572.572 0 0 1-.21-.41v-.375c0-.156.054-.29.163-.399a.542.542 0 0 1 .399-.164l5.367.024h.024l.28-.024a.576.576 0 0 1 .375.164.455.455 0 0 1 .106.165.597.597 0 0 1 .035.21l-.046.282h.011c.008 0 .012.008.012.023v5.414a.483.483 0 0 1-.188.34.725.725 0 0 1-.375.152h-.398a.49.49 0 0 1-.387-.175.578.578 0 0 1-.152-.387l.023-3.633-6.445 6.399zm-8.133 6.046a.68.68 0 0 1 .528-.234.68.68 0 0 1 .527.234.68.68 0 0 1 .234.528.68.68 0 0 1-.234.527l-6.422 6.399h3.54a.65.65 0 0 1 .421.152.572.572 0 0 1 .211.41v.375c0 .156-.055.29-.164.398a.542.542 0 0 1-.399.165l-5.39-.024H.773l-.28.024a.576.576 0 0 1-.375-.164.455.455 0 0 1-.106-.165.597.597 0 0 1-.035-.21l.046-.282H.012c-.008 0-.012-.008-.012-.023v-5.414a.483.483 0 0 1 .188-.34.725.725 0 0 1 .374-.152h.422a.49.49 0 0 1 .387.175.578.578 0 0 1 .152.387L1.5 21.922l6.445-6.399zM24 23.633c0 .015-.004.023-.012.023h-.011l.046.282a.597.597 0 0 1-.035.21.455.455 0 0 1-.105.165.576.576 0 0 1-.375.164l-.281-.024h-.024l-5.367.024a.542.542 0 0 1-.398-.165.542.542 0 0 1-.165-.398v-.375a.572.572 0 0 1 .211-.41.652.652 0 0 1 .422-.152h3.54l-6.423-6.399a.68.68 0 0 1-.234-.527.68.68 0 0 1 .234-.528.68.68 0 0 1 .528-.234.68.68 0 0 1 .527.234l6.445 6.399-.023-3.633c0-.14.05-.27.152-.387a.49.49 0 0 1 .387-.175h.398a.716.716 0 0 1 .375.152c.11.086.172.2.188.34v5.414zM2.578 2.023L9 8.422a.68.68 0 0 1 .234.527.68.68 0 0 1-.234.528.68.68 0 0 1-.527.234.68.68 0 0 1-.528-.234L1.5 3.078l.023 3.633c0 .14-.05.27-.152.387a.49.49 0 0 1-.387.175H.563a.725.725 0 0 1-.375-.152.483.483 0 0 1-.188-.34V1.367c0-.015.004-.023.012-.023h.011l-.046-.282c0-.078.011-.148.035-.21A.455.455 0 0 1 .117.688.576.576 0 0 1 .492.522l.281.024h.024l5.39-.024c.157 0 .29.055.399.164.11.11.164.243.164.399v.375a.572.572 0 0 1-.21.41.652.652 0 0 1-.423.152H2.578z" fill="#14364C" fill-rule="evenodd"/></svg>