<svg width="20" height="20" xmlns="http://www.w3.org/2000/svg"><path d="M18.385 0c.452 0 .834.148 1.146.443.313.295.469.668.469 1.12V18.28c0 .452-.156.85-.469 1.198a1.483 1.483 0 0 1-1.146.521H1.72c-.452 0-.85-.174-1.198-.52C.174 19.131 0 18.732 0 18.28V1.563C0 1.11.165.738.495.442.825.148 1.233 0 1.719 0h16.666zm-2.999 16.056l2.347-11.07c.209-.974-.35-1.357-.989-1.117l-13.8 5.318c-.943.367-.926.895-.16 1.133l3.53 1.103 8.193-5.159c.384-.255.736-.112.448.144l-6.628 5.99-.256 3.64c.366 0 .528-.158.72-.35l1.723-1.662 3.579 2.637c.654.368 1.117.175 1.293-.607z" fill="#FFF" fill-rule="evenodd"/></svg>