<svg width="20" height="20" xmlns="http://www.w3.org/2000/svg"><path d="M18.385 0c.452 0 .834.148 1.146.443.313.295.469.668.469 1.12V18.28c0 .452-.156.85-.469 1.198a1.483 1.483 0 0 1-1.146.521H1.72c-.452 0-.85-.174-1.198-.52C.174 19.131 0 18.732 0 18.28V1.563C0 1.11.165.738.495.442.825.148 1.233 0 1.719 0h16.666zm-.925 6.425a5.907 5.907 0 0 1-1.613.454 2.83 2.83 0 0 0 1.24-1.56c-.546.32-1.146.56-1.786.68a2.776 2.776 0 0 0-2.04-.88 2.8 2.8 0 0 0-2.8 2.8c0 .213.014.44.067.64a7.954 7.954 0 0 1-5.785-2.933c-.24.413-.387.906-.387 1.413 0 .973.453 1.826 1.213 2.333-.466-.014-.906-.147-1.333-.347v.027c0 1.36 1.027 2.493 2.306 2.746-.24.066-.426.106-.68.106-.173 0-.346-.026-.52-.053a2.817 2.817 0 0 0 2.613 1.946 5.638 5.638 0 0 1-4.145 1.16 7.98 7.98 0 0 0 4.292 1.253c5.146 0 7.972-4.266 7.972-7.972 0-.12 0-.24-.013-.36a5.384 5.384 0 0 0 1.4-1.453z" fill="#FFF" fill-rule="evenodd"/></svg>