<svg height="24" width="24" xmlns="http://www.w3.org/2000/svg"><path d="M21.625 11h-4.781c-.292 0-.51.052-.657.156S15.146 11.875 13.5 13v-2h-.125c-.667 0-1.23-.214-1.688-.64A2.072 2.072 0 0 1 11 8.78V2.25c0-.625.23-1.156.688-1.594S12.707 0 13.374 0h8.25c.667 0 1.23.219 1.688.656S24 1.625 24 2.25v6.531c0 .625-.23 1.151-.688 1.578-.458.427-1.02.641-1.687.641zM7 18c.866 0 1.816.144 2.85.432 1.174.336 2.124.784 2.85 1.344.867.656 1.3 1.392 1.3 2.208V24H0v-2.016c0-.816.433-1.552 1.3-2.208.726-.56 1.676-1.008 2.85-1.344C5.184 18.144 6.134 18 7 18zm.5-1c-.633 0-1.216-.157-1.75-.472s-.96-.737-1.276-1.268A3.337 3.337 0 0 1 4 13.521c0-.629.158-1.216.474-1.76s.742-.975 1.276-1.29S6.867 10 7.5 10s1.216.157 1.75.472.96.744 1.276 1.288c.316.545.474 1.132.474 1.761s-.158 1.209-.474 1.74c-.317.53-.742.953-1.276 1.267S8.133 17 7.5 17z" fill="#24b99d"/></svg>