<svg height="24" width="24" xmlns="http://www.w3.org/2000/svg"><path d="M13.868 18.919a4.016 4.016 0 0 0 2.047-2.945 4.016 4.016 0 0 0 2.963-2.05l.069.073a2.8 2.8 0 0 0 1.985.823 2.811 2.811 0 0 0 2.808-2.808 2.811 2.811 0 0 0-2.808-2.809 2.8 2.8 0 0 0-2.056.898 4.009 4.009 0 0 0-2.96-2.05 4.016 4.016 0 0 0-2.046-2.946l.072-.069a2.79 2.79 0 0 0 .822-1.985 2.79 2.79 0 0 0-.822-1.986 2.79 2.79 0 0 0-1.986-.822A2.811 2.811 0 0 0 9.148 3.05a2.799 2.799 0 0 0 .897 2.055 4.009 4.009 0 0 0-2.048 2.948 4.016 4.016 0 0 0-2.933 2.044l-.068-.072a2.79 2.79 0 0 0-1.986-.822 2.811 2.811 0 0 0-2.808 2.808c0 .75.292 1.455.822 1.985a2.79 2.79 0 0 0 1.986.823 2.8 2.8 0 0 0 2.054-.896 4.016 4.016 0 0 0 2.932 2.045 4.016 4.016 0 0 0 2.046 2.949l-.072.069a2.79 2.79 0 0 0-.822 1.986 2.8 2.8 0 0 0 .823 1.984 2.8 2.8 0 0 0 1.985.824 2.812 2.812 0 0 0 2.808-2.808 2.8 2.8 0 0 0-.896-2.054zm-4.892-6.907l2.995-2.995 2.995 2.995-2.995 2.995zM22.665 1.733v3.448H20.96V3.437h-1.743V1.733zM5.319 3.437H3.576v1.744H1.87V1.733h3.45zm.235 17.15v1.704H2.107v-3.448H3.81v1.743zm16.875-1.744v3.448h-3.448v-1.705h1.744v-1.743z" fill="#24b99d"/></svg>