<svg height="13" width="12" xmlns="http://www.w3.org/2000/svg"><path d="M2.4 5.584c.49.939 1.115 1.787 1.872 2.544S5.877 9.509 6.816 10l1.472-1.472c.085-.096.192-.16.32-.192s.25-.021.368.032c.704.245 1.493.368 2.368.368.181 0 .336.064.464.192s.192.283.192.464v2.352c0 .181-.064.336-.192.464s-.283.192-.464.192a11.2 11.2 0 0 1-4.416-.896c-1.355-.576-2.555-1.387-3.6-2.432S1.472 6.827.896 5.472A11.194 11.194 0 0 1 0 1.056C0 .875.064.72.192.592S.475.4.656.4h2.352c.181 0 .336.064.464.192s.192.283.192.464c0 .875.123 1.664.368 2.368.032.117.037.24.016.368s-.08.235-.176.32z" fill="#fff" fill-rule="evenodd" opacity=".5"/></svg>