<svg height="16" width="14" xmlns="http://www.w3.org/2000/svg"><path d="M2.284 5.931h1.174c.285 0 .508.07.666.208s.238.325.238.563c0 .235-.08.422-.24.561-.16.14-.381.21-.664.21H2.85v1.046h-.567zm1.1 1.109c.296 0 .444-.112.444-.335 0-.225-.148-.337-.443-.337H2.85v.672zm1.464 1.479V5.93h.567v2.126H6.57v.462zm2.317 0V6.393h-.81v-.462h2.194v.462h-.81v2.126zm3.094-1.312l.989 1.312h-.662l-.646-.894-.647.894h-.661l.984-1.312-.955-1.276h.66l.619.862.625-.862h.66zm2.658-.434A6.143 6.143 0 1 0 .63 6.774a6.143 6.143 0 0 0 12.287-.001zm-3.205 6.104c-.8.385-1.687.618-2.624.661v1.824a6.11 6.11 0 0 0 2.654-.756h-.03zm.63-.347v1.698a6.136 6.136 0 0 0 2.56-4.567 6.803 6.803 0 0 1-2.56 2.87zm-6.507.347v1.73h-.03a6.107 6.107 0 0 0 2.653.755v-1.824a6.736 6.736 0 0 1-2.623-.661zm-.63-.346a6.803 6.803 0 0 1-2.56-2.87 6.137 6.137 0 0 0 2.56 4.567zM13.52 7.38h.027v1.846A6.773 6.773 0 0 1 0 9.227V7.382h.027a6.773 6.773 0 1 1 13.493 0zM6.773 4.93l-.94-.94.94-.94.94.94z" fill="#178072" fill-rule="evenodd"/></svg>