<svg height="24" width="24" xmlns="http://www.w3.org/2000/svg"><path d="M20 15H4v7a1 1 0 0 1-1 1H1a1 1 0 0 1-1-1V3a1 1 0 0 1 1-1h22a1 1 0 0 1 1 1v19a1 1 0 0 1-1 1h-2a1 1 0 0 1-1-1zM5.486 12.108c.707 0 1.322-.144 1.845-.433s.923-.703 1.203-1.242c.279-.539.418-1.168.418-1.889s-.14-1.347-.418-1.879c-.28-.532-.68-.943-1.203-1.232S6.193 5 5.486 5c-.708 0-1.323.144-1.845.433s-.927.7-1.213 1.232C2.143 7.197 2 7.824 2 8.545s.141 1.35.424 1.888c.282.539.686.953 1.212 1.242s1.142.433 1.85.433zm0-1.392c-.52 0-.925-.184-1.217-.55-.292-.367-.438-.908-.438-1.622 0-.707.146-1.243.438-1.606.292-.364.698-.546 1.217-.546.52 0 .926.184 1.222.55.295.367.443.901.443 1.602 0 .708-.148 1.247-.443 1.617-.296.37-.703.555-1.222.555zM11.2 12.02h1.85V6.568h2.065v-1.48H9.137v1.48h2.064zm7.644.088c.454 0 .894-.068 1.32-.204.425-.137.767-.322 1.027-.555l-.555-1.296c-.565.41-1.15.614-1.753.614-.558 0-.987-.179-1.285-.536-.299-.357-.448-.886-.448-1.587 0-.694.149-1.218.448-1.572.298-.354.727-.53 1.285-.53.604 0 1.188.204 1.753.613l.555-1.296c-.26-.233-.602-.418-1.028-.555A4.295 4.295 0 0 0 18.845 5c-.72 0-1.349.148-1.884.443a3.05 3.05 0 0 0-1.237 1.246c-.289.536-.433 1.154-.433 1.855 0 .708.144 1.331.433 1.87.29.539.701.956 1.237 1.251.535.295 1.163.443 1.884.443z" fill="#24b99d" fill-rule="evenodd"/></svg>