<svg height="24" width="24" xmlns="http://www.w3.org/2000/svg"><g fill="none" fill-rule="evenodd" transform="translate(2 2)"><path d="M5 0h10.857L20 3.392V18a3 3 0 0 1-3 3H5a3 3 0 0 1-3-3V3a3 3 0 0 1 3-3z" fill="#fff"/><rect fill="#d1d3db" height="1" rx=".5" width="7" x="4" y="2"/><rect fill="#d1d3db" height="1" rx=".5" width="11" x="4" y="5"/><path d="M15.864 0l4.147 3.404h-1.147a3 3 0 0 1-3-3z" fill="#d2d4dc"/><rect fill="#6bdfb0" height="10" rx="3" width="18" y="8"/><path d="M2 14.931V11h1.5c1.41 0 2.41.813 2.41 1.963s-1 1.968-2.41 1.968zm.897-.766h.72c.8 0 1.367-.498 1.367-1.202 0-.698-.568-1.196-1.367-1.196h-.72zM9.003 15c-.94 0-1.726-.71-1.726-1.55 0-.842.787-1.546 1.726-1.546.934 0 1.715.704 1.715 1.545S9.937 15 9.003 15zm0-.704c.47 0 .867-.389.867-.847 0-.458-.397-.841-.867-.841-.476 0-.872.383-.872.841 0 .458.396.847.872.847zm4.734.704c-.933 0-1.72-.71-1.72-1.55 0-.842.793-1.546 1.726-1.546a1.7 1.7 0 0 1 1.239.504l-.592.475a.933.933 0 0 0-.653-.275c-.464 0-.854.383-.854.835 0 .464.39.853.86.853a.96.96 0 0 0 .665-.286l.592.47c-.311.32-.738.52-1.263.52z" fill="#fff"/></g></svg>